HIERARCHY
ROOT pelvis
{
  OFFSET 0 100 0
  CHANNELS 6 Xposition Yposition Zposition Zrotation Xrotation Yrotation
  JOINT pelvis_right_femur
  {
    OFFSET -10.78128 -3.44521 -0.5502486
    CHANNELS 3 Zrotation Xrotation Yrotation
    JOINT right_femur_tibia
    {
      OFFSET -0.8047443 -44.0398 -0.1307829
      CHANNELS 3 Zrotation Xrotation Yrotation
      JOINT right_tibia_foot
      {
        OFFSET 3.006224 -47.83518 -5
        CHANNELS 3 Zrotation Xrotation Yrotation
        End Site
        {
          OFFSET 0 -5 15
        }
      }
    }
  }
  JOINT pelvis_left_femur
  {
    OFFSET 10.78128 -3.44521 -0.5502486
    CHANNELS 3 Zrotation Xrotation Yrotation
    JOINT left_femur_tibia
    {
      OFFSET 0.8047443 -44.0398 -0.1307829
      CHANNELS 3 Zrotation Xrotation Yrotation
      JOINT left_tibia_foot
      {
        OFFSET -4.370144 -48.10324 -4.275266
        CHANNELS 3 Zrotation Xrotation Yrotation
        End Site
        {
          OFFSET 0 -5 15
        }
      }
    }
  }
  JOINT pelvis_spine1
  {
    OFFSET 0 6.468898 -3.129235
    CHANNELS 3 Zrotation Xrotation Yrotation
    JOINT spine1
    {
      OFFSET 0 23.15396 4.99043
      CHANNELS 3 Zrotation Xrotation Yrotation
      JOINT spine2
      {
        OFFSET 0 20.79997 -5.064912
        CHANNELS 3 Zrotation Xrotation Yrotation
        JOINT neck
        {
          OFFSET 0 14.38658 9.616178
          CHANNELS 3 Zrotation Xrotation Yrotation
          End Site
          {
            OFFSET 0 20 0
          }
        }
      }
      JOINT right_manubrium
      {
        OFFSET -5.722621 16.35077 3.967754
        CHANNELS 3 Zrotation Xrotation Yrotation
        JOINT right_clavicle
        {
          OFFSET -13.16364 1.694482 -4.693211
          CHANNELS 3 Zrotation Xrotation Yrotation
          JOINT right_humerus
          {
            OFFSET -28.5034 -0.3100689 -2.792744
            CHANNELS 3 Zrotation Xrotation Yrotation
            JOINT right_radius
            {
              OFFSET -25.15693 0.02248979 -1.271978
              CHANNELS 3 Zrotation Xrotation Yrotation
              End Site
              {
                OFFSET -15 0 0
              }
            }
          }
        }
      }
      JOINT left_manubrium
      {
        OFFSET 5.722621 16.35077 3.967754
        CHANNELS 3 Zrotation Xrotation Yrotation
        JOINT left_clavicle
        {
          OFFSET 13.16364 1.694482 -4.693211
          CHANNELS 3 Zrotation Xrotation Yrotation
          JOINT left_humerus
          {
            OFFSET 29.39168 -1.063119 -2.237045
            CHANNELS 3 Zrotation Xrotation Yrotation
            JOINT left_radius
            {
              OFFSET 24.59957 -0.9528479 0.9047498
              CHANNELS 3 Zrotation Xrotation Yrotation
              End Site
              {
                OFFSET 15 -0 -0
              }
            }
          }
        }
      }
    }
  }
}
MOTION
Frames: 11
Frame Time: 0.0416666666667
39.19591 104.6521 240.013 2.023545 -6.981987 6.434636 1.485094 10.82798 6.926595 1.140181e-06 36.71526 -5.257183e-06 2.823046 -10.31071 -4.159605 -2.488265 -15.63465 -8.30939 -3.285923e-06 19.71796 -5.616055e-06 -8.219112 -10.62691 18.50239 -1.181731 0.03500396 7.662229 -1.679819 9.570279 -3.431228 2.463961 21.59142 4.973672 2.364867 -16.33188 6.780843 2.057144 -21.13224 10.59557 82.92995 23.48745 -8.319447 1.235297e-06 -5.120555e-07 25.17392 -21.56425 10.98348 12.21841 4.545526 -15.1346 -2.980746 -94.9543 26.74086 26.1485 -1.612045e-06 -1.83714e-06 -11.16591 -5.242214 6.052387 20.531
40.85661 105.1443 246.0579 2.368462 -7.449273 6.87384 0.8687409 9.047508 6.924701 4.782904e-06 43.50496 -7.404755e-06 2.64644 -8.653972 -4.745562 -3.541924 -12.40367 -9.278847 -2.111662e-06 20.90945 -6.44374e-06 -7.718001 -10.98212 18.34778 -1.513194 -0.1521112 7.197738 -1.775821 9.585699 -3.630199 2.4748 21.93818 5.097554 2.368444 -16.13593 6.958186 2.306845 -20.27914 10.46485 83.64331 23.68837 -9.36421 1.141316e-06 -6.418945e-07 23.63503 -21.13707 10.75698 11.56481 4.266083 -15.20711 -3.20045 -93.86127 27.33994 24.69905 -1.282721e-06 -2.457851e-06 -11.27346 -4.984954 6.340027 20.31296
42.46685 105.9451 251.7639 2.727154 -8.024032 7.550444 0.3521198 5.632022 6.824198 8.679343e-06 50.10283 -9.307339e-06 2.4263 -7.458935 -5.507516 -4.502912 -8.387905 -10.27835 -2.663631e-06 21.1621 -5.578948e-06 -7.130871 -11.92953 18.01213 -1.808953 -0.08558257 6.55218 -1.816622 9.598977 -3.960103 2.459019 22.33378 5.248668 2.298089 -15.88164 7.204565 2.544792 -19.40416 10.35642 84.62621 23.82878 -10.73497 1.243377e-06 -8.165504e-07 22.04015 -20.48767 10.5907 10.76326 4.070338 -15.46758 -3.546576 -92.48152 28.04607 22.69749 -1.064291e-06 -2.826166e-06 -11.98561 -4.650322 6.675981 19.97634
43.97873 106.8903 257.0305 2.951846 -8.44115 8.395881 0.1541084 0.9894436 6.626527 1.152422e-05 54.37112 -1.025499e-05 1.936056 -7.197148 -6.328231 -5.130471 -3.863961 -11.18232 -4.028533e-06 20.8481 -3.362065e-06 -6.567246 -13.11225 17.47811 -1.972341 0.1342052 5.757513 -1.69076 9.50141 -4.431032 2.439382 22.66103 5.331377 2.127118 -15.67506 7.467438 2.708717 -18.51428 10.21092 85.55866 24.00607 -12.29052 1.368693e-06 -8.888672e-07 20.37908 -19.39371 10.52863 9.760516 3.975698 -15.87216 -3.873642 -90.77033 28.76712 20.26176 -1.003855e-06 -3.043961e-06 -13.17742 -4.180218 7.166144 19.37575
45.42848 107.782 262.0907 3.029874 -8.518672 9.351895 0.1933321 -3.907308 6.18788 1.229309e-05 55.40151 -1.002432e-05 1.563195 -7.170755 -7.007949 -5.40794 0.5103251 -11.71159 -5.737257e-06 19.4833 -3.087808e-07 -6.427352 -14.56974 16.72873 -1.977759 0.3687648 4.995242 -1.494135 9.271295 -4.905212 2.459394 22.88044 5.395556 1.962181 -15.59871 7.734059 2.644306 -17.76234 10.01453 86.69137 23.90204 -13.85472 1.399023e-06 -9.547948e-07 18.95375 -18.53957 10.50489 8.965827 4.139825 -16.40122 -4.129678 -89.35004 29.25645 17.83873 -1.032571e-06 -3.127379e-06 -14.82676 -3.71611 7.585568 18.76869
46.7683 108.3362 266.8171 3.071425 -8.415768 10.32874 0.4204786 -9.001742 5.746905 9.403382e-06 52.8757 -6.632159e-06 1.092878 -7.608904 -7.556069 -5.483067 4.352638 -12.143 -7.691558e-06 17.34867 2.174605e-06 -6.049923 -16.29722 16.40736 -1.999703 0.7015843 4.295625 -1.158365 9.033313 -5.371397 2.449703 22.96547 5.47033 1.85871 -15.55928 7.926483 2.529527 -17.10043 9.865114 87.16449 23.87342 -15.20272 1.686487e-06 -1.04929e-06 17.52609 -17.60842 10.38681 8.216334 4.545796 -17.06769 -4.32069 -87.65644 29.48427 15.20724 -1.372329e-06 -2.596533e-06 -16.74238 -3.093951 8.137869 17.83035
48.01596 108.4553 271.4936 3.015408 -8.01004 11.2349 0.7251488 -13.59417 5.177823 5.501895e-06 47.23479 -3.330078e-06 0.7594869 -8.147291 -8.011113 -5.372263 7.890764 -12.2309 -8.959782e-06 15.09788 4.270929e-06 -6.042818 -17.99584 16.09915 -1.986997 0.9099586 3.697777 -0.7619971 8.654678 -5.817696 2.491813 23.00477 5.509383 1.812381 -15.56999 8.066939 2.265675 -16.4119 9.64573 87.69306 23.77369 -16.53664 1.842716e-06 -1.105428e-06 16.06247 -16.98814 10.27669 7.656577 5.174224 -17.82476 -4.363374 -86.18139 29.51127 12.47034 -1.880356e-06 -2.06114e-06 -18.95082 -2.485682 8.609234 16.89175
49.19614 108.1289 276.3697 2.926856 -7.407765 12.0201 0.9931243 -17.29021 4.535815 1.953003e-06 39.77357 -1.382447e-06 0.5535949 -8.668796 -8.373449 -5.21862 11.01794 -12.05499 -9.486179e-06 13.42831 5.722347e-06 -6.298315 -19.4581 15.86654 -1.999855 0.9293353 3.247253 -0.3590207 8.197178 -6.225775 2.573959 23.06799 5.521875 1.83422 -15.59928 8.148536 1.930934 -15.66826 9.385855 88.33607 23.68603 -17.88374 1.889147e-06 -1.162824e-06 14.50503 -16.69158 10.16477 7.243397 5.917392 -18.63873 -4.274344 -84.97732 29.40161 9.73059 -2.516001e-06 -1.647881e-06 -21.30291 -1.898687 9.013719 15.99532
50.25397 107.3411 281.3007 2.868544 -6.87342 12.66229 1.226392 -20.66144 3.951077 -1.177324e-06 32.11751 2.250417e-07 0.1286061 -9.401053 -8.669051 -5.099234 13.71998 -11.93176 -1.020052e-05 12.44535 6.823869e-06 -6.27084 -20.7217 15.89733 -2.076749 0.9660317 2.847196 0.0609185 7.788531 -6.608369 2.615005 23.17603 5.542042 1.883195 -15.59992 8.179534 1.670278 -14.89216 9.179892 88.66985 23.81383 -19.14643 2.084785e-06 -1.255343e-06 12.7781 -16.26599 9.974175 6.749461 6.61604 -19.47795 -4.170654 -83.59569 29.2277 6.924851 -3.199202e-06 -1.052856e-06 -23.5852 -1.179465 9.537431 14.90444
51.20102 106.2702 286.3541 2.756231 -6.321587 13.15598 1.399518 -23.05924 3.351504 -3.048333e-06 25.5046 6.011321e-07 -0.5349518 -10.15841 -8.811172 -4.992271 15.92827 -11.78171 -1.052477e-05 12.67401 8.071502e-06 -6.290636 -21.36041 15.78522 -2.126433 0.8686258 2.514247 0.4297774 7.365439 -6.932407 2.644385 23.34028 5.525652 1.9176 -15.65846 8.181291 1.44245 -14.10727 8.964974 89.01478 24.08498 -20.29561 2.105675e-06 -1.281562e-06 11.01693 -15.78626 9.779947 6.227379 7.119284 -20.19882 -4.014279 -82.3627 29.08722 4.481998 -3.694915e-06 -7.964742e-07 -25.4913 -0.4217174 10.10666 13.8165
52.06387 105.1288 291.569 2.596648 -5.910302 13.55062 1.548427 -24.55103 2.889275 -3.627191e-06 21.36621 2.114768e-07 -1.364926 -10.78034 -8.946049 -4.886452 17.80945 -11.70706 -1.007746e-05 14.01416 9.254304e-06 -6.425261 -21.34115 15.45107 -2.10808 0.6963709 2.193836 0.7149365 6.981822 -7.194824 2.687077 23.53419 5.439348 1.884927 -15.74883 8.187197 1.279973 -13.38493 8.745798 89.45638 24.38681 -21.24921 1.871146e-06 -1.124399e-06 9.44335 -15.19682 9.66424 5.684117 7.326387 -20.6671 -3.857908 -81.40844 29.07643 2.670805 -3.925763e-06 -1.011011e-06 -26.66098 0.2231754 10.6435 12.93538
